<svg width="22" height="22" viewBox="0 0 22 22" fill="none" xmlns="http://www.w3.org/2000/svg">
<path d="M14.0699 2V7M14.0699 7L19.0699 7M14.0699 7L20.0699 1M9.29695 11.8631C8.09537 10.6615 7.14659 9.30285 6.45059 7.85323C6.39072 7.72854 6.36079 7.66619 6.33779 7.5873C6.25607 7.30695 6.31477 6.96269 6.48478 6.72526C6.53262 6.65845 6.58978 6.60129 6.70409 6.48698C7.0537 6.13737 7.2285 5.96257 7.34278 5.78679C7.77378 5.1239 7.77378 4.26932 7.34279 3.60643C7.2285 3.43065 7.0537 3.25585 6.70409 2.90624L6.50922 2.71137C5.97778 2.17993 5.71206 1.91421 5.42668 1.76987C4.85912 1.4828 4.18885 1.4828 3.62129 1.76987C3.33591 1.91421 3.07019 2.17993 2.53874 2.71137L2.38111 2.86901C1.85149 3.39863 1.58668 3.66344 1.38443 4.02348C1.16001 4.42298 0.998645 5.04347 1.00001 5.5017C1.00124 5.91464 1.08134 6.19687 1.24155 6.76131C2.10252 9.79471 3.72699 12.6571 6.11497 15.045C8.50295 17.433 11.3653 19.0575 14.3987 19.9185C14.9632 20.0787 15.2454 20.1588 15.6583 20.16C16.1165 20.1614 16.737 20 17.1365 19.7756C17.4966 19.5733 17.7614 19.3085 18.291 18.7789L18.4486 18.6213C18.9801 18.0898 19.2458 17.8241 19.3902 17.5387C19.6772 16.9712 19.6772 16.3009 19.3902 15.7333C19.2458 15.448 18.9801 15.1822 18.4486 14.6508L18.2538 14.4559C17.9042 14.1063 17.7294 13.9315 17.5536 13.8172C16.8907 13.3862 16.0361 13.3862 15.3732 13.8172C15.1975 13.9315 15.0226 14.1063 14.673 14.4559C14.5587 14.5702 14.5016 14.6274 14.4348 14.6752C14.1973 14.8453 13.8531 14.904 13.5727 14.8222C13.4938 14.7992 13.4315 14.7693 13.3068 14.7094C11.8572 14.0134 10.4985 13.0646 9.29695 11.8631Z" stroke="black" stroke-width="2" stroke-linecap="round" stroke-linejoin="round"/>
</svg>
