<svg width="22" height="10" viewBox="0 0 22 10" fill="none" xmlns="http://www.w3.org/2000/svg">
<path d="M15.3094 5.73129C13.9608 5.25761 12.5105 5 11 5C9.48952 5 8.03921 5.25761 6.69061 5.73129C6.64577 5.74704 6.62335 5.75491 6.58798 5.7705C6.2674 5.91175 6.02122 6.25915 5.99418 6.60842C5.9912 6.64695 5.9912 6.68109 5.9912 6.74937C5.9912 6.98212 5.9912 7.0985 5.98152 7.19653C5.8878 8.14569 5.13689 8.8966 4.18773 8.99032C4.0897 9 3.97332 9 3.74057 9H3.4956C3.03504 9 2.80476 9 2.61321 8.96224C1.81709 8.80531 1.19469 8.18291 1.03776 7.38679C1 7.19524 1 6.96496 1 6.5044V6.30624C1 5.83096 1 5.59332 1.05074 5.32095C1.16421 4.71185 1.60675 3.95826 2.0834 3.56244C2.29654 3.38543 2.4411 3.30479 2.73021 3.14352C5.17797 1.77806 7.99812 1 11 1C14.0019 1 16.822 1.77806 19.2698 3.14352C19.5589 3.30479 19.7035 3.38543 19.9166 3.56244C20.3933 3.95826 20.8358 4.71185 20.9493 5.32095C21 5.59332 21 5.83096 21 6.30624V6.5044C21 6.96496 21 7.19524 20.9622 7.38679C20.8053 8.18291 20.1829 8.80531 19.3868 8.96224C19.1952 9 18.965 9 18.5044 9H18.2594C18.0267 9 17.9103 9 17.8123 8.99032C16.8631 8.8966 16.1122 8.14569 16.0185 7.19653C16.0088 7.0985 16.0088 6.98212 16.0088 6.74937C16.0088 6.68109 16.0088 6.64695 16.0058 6.60842C15.9788 6.25915 15.7326 5.91175 15.412 5.7705C15.3767 5.75491 15.3542 5.74704 15.3094 5.73129Z" stroke="black" stroke-width="2" stroke-linecap="round" stroke-linejoin="round"/>
</svg>
