<svg width="22" height="21" viewBox="0 0 22 21" fill="none" xmlns="http://www.w3.org/2000/svg">
<path d="M21 10.5V13.6C21 15.8402 21 16.9603 20.564 17.816C20.1805 18.5686 19.5686 19.1805 18.816 19.564C17.9603 20 16.8402 20 14.6 20H7.4C5.15979 20 4.03969 20 3.18404 19.564C2.43139 19.1805 1.81947 18.5686 1.43597 17.816C1 16.9603 1 15.8402 1 13.6V8.4C1 6.15979 1 5.03969 1.43597 4.18404C1.81947 3.43139 2.43139 2.81947 3.18404 2.43597C4.03969 2 5.15979 2 7.4 2H11.5M18 7V1M15 4H21M15 11C15 13.2091 13.2091 15 11 15C8.79086 15 7 13.2091 7 11C7 8.79086 8.79086 7 11 7C13.2091 7 15 8.79086 15 11Z" stroke="black" stroke-width="2" stroke-linecap="round" stroke-linejoin="round"/>
</svg>
