<svg width="16" height="27" viewBox="0 0 16 27" fill="none" xmlns="http://www.w3.org/2000/svg">
<path d="M13.8182 6.13636V20.25C13.8182 22.9623 11.2145 25.1591 8 25.1591C4.78545 25.1591 2.18182 22.9623 2.18182 20.25V4.90909C2.18182 3.21545 3.81091 1.84091 5.81818 1.84091C7.82545 1.84091 9.45455 3.21545 9.45455 4.90909V17.7955C9.45455 18.4705 8.8 19.0227 8 19.0227C7.2 19.0227 6.54545 18.4705 6.54545 17.7955V6.13636H4.36364V17.7955C4.36364 19.4891 5.99273 20.8636 8 20.8636C10.0073 20.8636 11.6364 19.4891 11.6364 17.7955V4.90909C11.6364 2.19682 9.03273 0 5.81818 0C2.60364 0 0 2.19682 0 4.90909V20.25C0 23.9809 3.57818 27 8 27C12.4218 27 16 23.9809 16 20.25V6.13636H13.8182Z" fill="#2355C6"/>
</svg>
