<svg width="44" height="45" viewBox="0 0 44 45" fill="none" xmlns="http://www.w3.org/2000/svg">
<rect y="0.5" width="44" height="44" rx="22" fill="#D9D9D9"/>
<path d="M11.7858 17.5893L20.1256 23.2027C20.801 23.6572 21.1387 23.8845 21.5059 23.9725C21.8304 24.0503 22.1697 24.0503 22.4942 23.9725C22.8614 23.8845 23.1991 23.6572 23.8745 23.2027L32.2143 17.5893M16.6886 30.3571H27.3115C29.0276 30.3571 29.8857 30.3571 30.5412 30.036C31.1178 29.7535 31.5866 29.3028 31.8803 28.7484C32.2143 28.1181 32.2143 27.293 32.2143 25.6429V19.3571C32.2143 17.707 32.2143 16.8819 31.8803 16.2516C31.5866 15.6972 31.1178 15.2465 30.5412 14.964C29.8857 14.6429 29.0276 14.6429 27.3115 14.6429H16.6886C14.9725 14.6429 14.1144 14.6429 13.4589 14.964C12.8823 15.2465 12.4135 15.6972 12.1198 16.2516C11.7858 16.8819 11.7858 17.707 11.7858 19.3571V25.6429C11.7858 27.293 11.7858 28.1181 12.1198 28.7484C12.4135 29.3028 12.8823 29.7535 13.4589 30.036C14.1144 30.3571 14.9725 30.3571 16.6886 30.3571Z" stroke="#2355C6" stroke-width="3" stroke-linecap="round" stroke-linejoin="round"/>
</svg>
