<svg width="44" height="45" viewBox="0 0 44 45" fill="none" xmlns="http://www.w3.org/2000/svg">
<rect y="0.393707" width="43.7948" height="43.7948" rx="21.8974" fill="#2355C6"/>
<path d="M21.9738 0.393707C25.0155 0.393707 27.8737 0.973372 30.5483 2.1327C33.2229 3.29203 35.5566 4.87293 37.5495 6.87541C39.5423 8.87789 41.1156 11.2141 42.2694 13.8841C43.4231 16.554 44 19.4172 44 22.4736C44 25.5301 43.4231 28.402 42.2694 31.0896C41.1156 33.7771 39.5423 36.1221 37.5495 38.1246C35.5566 40.1271 33.2229 41.708 30.5483 42.8673C27.8737 44.0266 25.0155 44.6063 21.9738 44.6063C18.9321 44.6063 16.0826 44.0266 13.4255 42.8673C10.7684 41.708 8.44338 40.1271 6.45054 38.1246C4.45769 36.1221 2.88439 33.7771 1.73063 31.0896C0.576877 28.402 0 25.5301 0 22.4736C0 19.4172 0.576877 16.554 1.73063 13.8841C2.88439 11.2141 4.45769 8.87789 6.45054 6.87541C8.44338 4.87293 10.7684 3.29203 13.4255 2.1327C16.0826 0.973372 18.9321 0.393707 21.9738 0.393707ZM30.2598 10.0372H25.5924C24.6834 10.0372 23.8443 10.1953 23.0751 10.5115C22.3059 10.8277 21.6329 11.2492 21.056 11.7762C20.4791 12.3032 20.0334 12.9004 19.7187 13.5679C19.4041 14.2354 19.2467 14.9029 19.2467 15.5704V18.3633H15.1037V23.8438H19.2467V34.9101H24.7533V23.8438H28.8439V18.3633H24.7533V16.9405C24.7533 16.5189 24.9193 16.1852 25.2515 15.9393C25.5836 15.6933 25.8721 15.5704 26.1168 15.5704H30.2598V10.0372Z" fill="#D9D9D9"/>
</svg>
