<svg width="44" height="45" viewBox="0 0 44 45" fill="none" xmlns="http://www.w3.org/2000/svg">
<rect y="0.5" width="44" height="44" rx="22" fill="#2355C6"/>
<path d="M30.9329 15.7419C30.742 15.2474 30.4497 14.7985 30.0747 14.4239C29.6997 14.0493 29.2505 13.7575 28.7558 13.5671C28.0748 13.3148 27.3554 13.1815 26.6292 13.1729C25.4215 13.1179 25.0594 13.1042 22 13.1042C18.9406 13.1042 18.5785 13.1179 17.3708 13.1729C16.6438 13.1812 15.9237 13.3146 15.2419 13.5671C14.7475 13.758 14.2985 14.0503 13.9239 14.4253C13.5493 14.8003 13.2575 15.2495 13.0671 15.7442C12.8148 16.4252 12.6815 17.1446 12.6729 17.8708C12.6179 19.0785 12.6042 19.4406 12.6042 22.5C12.6042 25.5594 12.6179 25.9214 12.6729 27.1292C12.6812 27.8562 12.8146 28.5763 13.0671 29.2581C13.258 29.7525 13.5503 30.2015 13.9253 30.5761C14.3003 30.9507 14.7495 31.2425 15.2442 31.4329C15.9252 31.6852 16.6446 31.8185 17.3708 31.8271C18.5785 31.8821 18.9406 31.8935 22 31.8935C25.0594 31.8935 25.4215 31.8821 26.6292 31.8248C27.356 31.8172 28.0762 31.6846 28.7581 31.4329C29.2526 31.242 29.7015 30.9497 30.0761 30.5747C30.4507 30.1997 30.7425 29.7505 30.9329 29.2558C31.1852 28.5748 31.3185 27.8554 31.3271 27.1292C31.3821 25.9214 31.3935 25.5594 31.3935 22.5C31.3935 19.4406 31.3821 19.0785 31.3248 17.8708C31.3172 17.144 31.1847 16.4238 30.9329 15.7419ZM22 28.385C20.8361 28.385 19.6983 28.0398 18.7305 27.3932C17.7627 26.7465 17.0084 25.8274 16.563 24.7521C16.1176 23.6767 16.001 22.4935 16.2281 21.3519C16.4552 20.2103 17.0157 19.1617 17.8387 18.3387C18.6617 17.5156 19.7103 16.9551 20.8519 16.7281C21.9935 16.501 23.1768 16.6175 24.2521 17.063C25.3274 17.5084 26.2465 18.2627 26.8932 19.2305C27.5399 20.1982 27.885 21.3361 27.885 22.5C27.885 24.0608 27.265 25.5577 26.1613 26.6613C25.0577 27.765 23.5608 28.385 22 28.385ZM28.1165 17.7585C27.8445 17.7585 27.5787 17.6779 27.3526 17.5268C27.1264 17.3757 26.9502 17.161 26.8461 16.9097C26.7421 16.6585 26.7148 16.382 26.7679 16.1153C26.8209 15.8486 26.9519 15.6036 27.1442 15.4113C27.3365 15.219 27.5815 15.088 27.8482 15.035C28.1149 14.9819 28.3914 15.0091 28.6427 15.1132C28.8939 15.2173 29.1086 15.3935 29.2597 15.6196C29.4108 15.8457 29.4915 16.1116 29.4915 16.3835C29.4915 16.7482 29.3466 17.0979 29.0887 17.3558C28.8309 17.6137 28.4811 17.7585 28.1165 17.7585ZM25.8202 22.5C25.8202 23.2556 25.5962 23.9942 25.1764 24.6224C24.7566 25.2506 24.16 25.7403 23.4619 26.0294C22.7639 26.3185 21.9958 26.3942 21.2547 26.2468C20.5137 26.0994 19.833 25.7356 19.2987 25.2013C18.7644 24.667 18.4006 23.9863 18.2532 23.2453C18.1058 22.5042 18.1815 21.7361 18.4706 21.0381C18.7597 20.34 19.2494 19.7434 19.8776 19.3236C20.5058 18.9038 21.2444 18.6798 22 18.6798C23.0132 18.6798 23.9849 19.0823 24.7013 19.7987C25.4177 20.5151 25.8202 21.4868 25.8202 22.5ZM22 0.5C17.6488 0.5 13.3953 1.79028 9.77746 4.20767C6.15958 6.62506 3.33979 10.061 1.67466 14.081C0.00953221 18.1009 -0.426141 22.5244 0.422734 26.792C1.27161 31.0596 3.3669 34.9796 6.44366 38.0563C9.52041 41.1331 13.4404 43.2284 17.708 44.0773C21.9756 44.9261 26.3991 44.4905 30.419 42.8253C34.439 41.1602 37.8749 38.3404 40.2923 34.7225C42.7097 31.1047 44 26.8512 44 22.5C44 16.6652 41.6822 11.0694 37.5564 6.94365C33.4306 2.81785 27.8348 0.5 22 0.5ZM33.3896 27.2231C33.3702 28.174 33.1896 29.1147 32.8556 30.0052C32.5613 30.7662 32.1113 31.4573 31.5343 32.0343C30.9574 32.6113 30.2662 33.0613 29.5052 33.3556C28.6154 33.6894 27.6755 33.8699 26.7254 33.8896C25.5017 33.9446 25.1121 33.9583 22 33.9583C18.8879 33.9583 18.4983 33.9446 17.2746 33.8896C16.3245 33.8699 15.3846 33.6894 14.4948 33.3556C13.7338 33.0613 13.0427 32.6113 12.4657 32.0343C11.8887 31.4573 11.4387 30.7662 11.1444 30.0052C10.8106 29.1154 10.6301 28.1755 10.6104 27.2254C10.5554 26.0017 10.5417 25.6121 10.5417 22.5C10.5417 19.3879 10.5554 18.9983 10.6104 17.7746C10.6294 16.8246 10.8091 15.8847 11.1421 14.9948C11.4364 14.2331 11.8867 13.5414 12.464 12.964C13.0414 12.3867 13.7331 11.9364 14.4948 11.6421C15.3847 11.3091 16.3246 11.1293 17.2746 11.1104C18.4983 11.0554 18.8879 11.0417 22 11.0417C25.1121 11.0417 25.5017 11.0554 26.7254 11.1104C27.6754 11.1293 28.6153 11.3091 29.5052 11.6421C30.2664 11.9366 30.9577 12.387 31.5347 12.9644C32.1117 13.5418 32.5616 14.2334 32.8556 14.9948C33.1894 15.8846 33.3699 16.8245 33.3896 17.7746C33.4446 18.9983 33.4583 19.3879 33.4583 22.5C33.4583 25.6121 33.4446 25.9994 33.3896 27.2231Z" fill="#D9D9D9"/>
</svg>
