<svg width="17" height="16" viewBox="0 0 17 16" fill="none" xmlns="http://www.w3.org/2000/svg">
<path fill-rule="evenodd" clip-rule="evenodd" d="M8.6705 0.329505C9.10983 0.768845 9.10983 1.48116 8.6705 1.9205L2.71599 7.875L8.6705 13.8295C9.10983 14.2688 9.10983 14.9812 8.6705 15.4205C8.23116 15.8598 7.51884 15.8598 7.0795 15.4205L0.329505 8.6705C-0.109835 8.23116 -0.109835 7.51884 0.329505 7.0795L7.0795 0.329505C7.51884 -0.109835 8.23116 -0.109835 8.6705 0.329505Z" fill="#FCF7F8"/>
<path fill-rule="evenodd" clip-rule="evenodd" d="M0.9375 7.875C0.9375 7.25368 1.44118 6.75 2.0625 6.75H15.75C16.3713 6.75 16.875 7.25368 16.875 7.875C16.875 8.49632 16.3713 9 15.75 9H2.0625C1.44118 9 0.9375 8.49632 0.9375 7.875Z" fill="#FCF7F8"/>
</svg>
