<svg width="53" height="54" viewBox="0 0 53 54" fill="none" xmlns="http://www.w3.org/2000/svg">
<circle cx="26.5" cy="27.0523" r="26.5" fill="#D9D9D9"/>
<path d="M39 40.5523C39 38.459 39 37.4123 38.7309 36.5606C38.1249 34.643 36.5618 33.1424 34.5643 32.5607C33.6771 32.3023 32.5868 32.3023 30.4062 32.3023H22.5938C20.4132 32.3023 19.3229 32.3023 18.4357 32.5607C16.4382 33.1424 14.8751 34.643 14.2691 36.5606C14 37.4123 14 38.459 14 40.5523M33.5312 20.3023C33.5312 24.0302 30.3833 27.0523 26.5 27.0523C22.6167 27.0523 19.4688 24.0302 19.4688 20.3023C19.4688 16.5744 22.6167 13.5523 26.5 13.5523C30.3833 13.5523 33.5312 16.5744 33.5312 20.3023Z" stroke="#1A4087" stroke-width="3" stroke-linecap="round" stroke-linejoin="round"/>
</svg>
