<svg width="12" height="13" viewBox="0 0 12 13" fill="none" xmlns="http://www.w3.org/2000/svg">
<path d="M11.8333 6.26027C11.8333 6.72051 11.4602 7.09361 11 7.09361H7.83329C7.28101 7.09361 6.83329 7.54132 6.83329 8.09361V11.2603C6.83329 11.7205 6.4602 12.0936 5.99996 12.0936V12.0936C5.53972 12.0936 5.16663 11.7205 5.16663 11.2603V8.09361C5.16663 7.54132 4.71891 7.09361 4.16663 7.09361H0.999959C0.539722 7.09361 0.166626 6.72051 0.166626 6.26027V6.26027C0.166626 5.80004 0.539722 5.42694 0.999959 5.42694H4.16663C4.71891 5.42694 5.16663 4.97923 5.16663 4.42694V1.26027C5.16663 0.800037 5.53972 0.426941 5.99996 0.426941V0.426941C6.4602 0.426941 6.83329 0.800037 6.83329 1.26027V4.42694C6.83329 4.97923 7.28101 5.42694 7.83329 5.42694H11C11.4602 5.42694 11.8333 5.80004 11.8333 6.26027V6.26027Z" fill="white"/>
</svg>
