<svg width="20" height="22" viewBox="0 0 20 22" fill="none" xmlns="http://www.w3.org/2000/svg">
<path d="M7.39516 18.3711L7.97961 19.6856C8.15335 20.0768 8.43689 20.4093 8.79583 20.6426C9.15478 20.8759 9.57372 21.0001 10.0018 21C10.4299 21.0001 10.8489 20.8759 11.2078 20.6426C11.5668 20.4093 11.8503 20.0768 12.0241 19.6856L12.6085 18.3711C12.8165 17.9047 13.1665 17.5159 13.6085 17.26C14.0533 17.0034 14.5678 16.8941 15.0785 16.9478L16.5085 17.1C16.9342 17.145 17.3638 17.0656 17.7452 16.8713C18.1266 16.6771 18.4435 16.3763 18.6574 16.0056C18.8716 15.635 18.9736 15.2103 18.9511 14.7829C18.9286 14.3555 18.7826 13.9438 18.5307 13.5978L17.6841 12.4344C17.3826 12.0171 17.2215 11.5148 17.2241 11C17.224 10.4866 17.3866 9.98635 17.6885 9.57111L18.5352 8.40778C18.787 8.06175 18.9331 7.65007 18.9556 7.22267C18.978 6.79528 18.876 6.37054 18.6618 6C18.4479 5.62923 18.1311 5.32849 17.7496 5.13423C17.3682 4.93997 16.9386 4.86053 16.5129 4.90556L15.0829 5.05778C14.5723 5.11141 14.0577 5.00212 13.6129 4.74556C13.1701 4.48825 12.82 4.09736 12.6129 3.62889L12.0241 2.31444C11.8503 1.92317 11.5668 1.59072 11.2078 1.3574C10.8489 1.12408 10.4299 0.99993 10.0018 1C9.57372 0.99993 9.15478 1.12408 8.79583 1.3574C8.43689 1.59072 8.15335 1.92317 7.97961 2.31444L7.39516 3.62889C7.18809 4.09736 6.83804 4.48825 6.39516 4.74556C5.95038 5.00212 5.43583 5.11141 4.92516 5.05778L3.49072 4.90556C3.06505 4.86053 2.63546 4.93997 2.25403 5.13423C1.87261 5.32849 1.55574 5.62923 1.34183 6C1.12765 6.37054 1.02561 6.79528 1.0481 7.22267C1.07058 7.65007 1.21662 8.06175 1.4685 8.40778L2.31516 9.57111C2.61711 9.98635 2.7797 10.4866 2.77961 11C2.7797 11.5134 2.61711 12.0137 2.31516 12.4289L1.4685 13.5922C1.21662 13.9382 1.07058 14.3499 1.0481 14.7773C1.02561 15.2047 1.12765 15.6295 1.34183 16C1.55595 16.3706 1.87286 16.6712 2.25423 16.8654C2.6356 17.0596 3.06508 17.1392 3.49072 17.0944L4.92072 16.9422C5.43139 16.8886 5.94594 16.9979 6.39072 17.2544C6.83525 17.511 7.18693 17.902 7.39516 18.3711Z" stroke="black" stroke-width="2" stroke-linecap="round" stroke-linejoin="round"/>
<path d="M10 14C11.6569 14 13 12.6569 13 11C13 9.34315 11.6569 8 10 8C8.34319 8 7.00004 9.34315 7.00004 11C7.00004 12.6569 8.34319 14 10 14Z" stroke="black" stroke-width="2" stroke-linecap="round" stroke-linejoin="round"/>
</svg>
