<svg width="44" height="45" viewBox="0 0 44 45" fill="none" xmlns="http://www.w3.org/2000/svg">
<rect y="0.5" width="44" height="44" rx="22" fill="#D9D9D9"/>
<path d="M22.0625 11.5177C23.1979 11.5 24.3246 11.5088 25.4513 11.5C25.5207 12.8524 25.9973 14.2313 26.968 15.1859C27.9387 16.1671 29.3081 16.6179 30.6428 16.7681V20.3303C29.3948 20.2861 28.1381 20.021 27.0027 19.4729C26.5087 19.2431 26.0493 18.9514 25.5987 18.6509C25.59 21.2319 25.6073 23.813 25.5813 26.3852C25.512 27.6227 25.1133 28.8513 24.4113 29.8678C23.2759 31.5649 21.3085 32.6698 19.2891 32.7052C18.0497 32.7759 16.8103 32.4312 15.753 31.7947C14.0022 30.7429 12.7715 28.8159 12.5895 26.7476C12.5722 26.3056 12.5635 25.8637 12.5809 25.4305C12.7369 23.7511 13.5516 22.1424 14.8169 21.0463C16.2557 19.7735 18.2664 19.1636 20.1471 19.526C20.1645 20.8342 20.1125 22.1424 20.1125 23.4506C19.2544 23.1677 18.2491 23.2473 17.495 23.7776C16.949 24.14 16.533 24.6969 16.3163 25.3245C16.1343 25.7753 16.1863 26.2703 16.195 26.7476C16.403 28.1972 17.7724 29.417 19.2284 29.2844C20.1991 29.2756 21.1265 28.701 21.6292 27.8613C21.7939 27.5696 21.9759 27.2691 21.9845 26.9244C22.0712 25.3421 22.0365 23.7688 22.0452 22.1866C22.0539 18.6244 22.0365 15.071 22.0625 11.5177Z" fill="#2355C6"/>
</svg>
