<svg width="19" height="19" viewBox="0 0 19 19" fill="none" xmlns="http://www.w3.org/2000/svg">
<path d="M4.46499 7.84231C5.8713 10.6723 8.13701 12.9823 10.9008 14.4323L13.0493 12.2323C13.313 11.9623 13.7036 11.8723 14.0455 11.9923C15.1393 12.3623 16.3209 12.5623 17.5319 12.5623C18.0691 12.5623 18.5085 13.0123 18.5085 13.5623V17.0523C18.5085 17.6023 18.0691 18.0523 17.5319 18.0523C8.36163 18.0523 0.929688 10.4423 0.929688 1.05231C0.929688 0.502307 1.36916 0.0523071 1.90629 0.0523071H5.3244C5.86153 0.0523071 6.301 0.502307 6.301 1.05231C6.301 2.30231 6.49632 3.50231 6.85766 4.62231C6.96509 4.97231 6.88696 5.36231 6.61351 5.64231L4.46499 7.84231Z" fill="black"/>
</svg>
