<?xml version="1.0" encoding="UTF-8"?>
<svg id="Layer_1" xmlns="http://www.w3.org/2000/svg" xmlns:xlink="http://www.w3.org/1999/xlink" viewBox="0 0 188.71 47.32">
  <defs>
    <style>
      .cls-1 {
        fill: none;
      }

      .cls-2 {
        fill: #fff;
      }

      .cls-3 {
        clip-path: url(#clippath);
      }
    </style>
    <clipPath id="clippath">
      <rect class="cls-1" y="0" width="188.71" height="47.31"/>
    </clipPath>
  </defs>
  <g class="cls-3">
    <g id="Group_38358">
      <path id="Path_38623" class="cls-2" d="M53.61,35.8h-7.52c-.38.02-.7.3-.77.67-.07.29.11.57.4.64.05.01.1.02.15.01h3.29l-.22,1.26h-3.29c-.86.03-1.59-.66-1.61-1.52,0-.13,0-.26.04-.39.21-1.09,1.14-1.89,2.25-1.95h.59c-.4-.42-.57-1.02-.44-1.59.28-1.64,1.67-2.86,3.33-2.94h2.07c1.28-.04,2.34.96,2.39,2.24,0,.19-.01.39-.05.58h-1.26c.15-.69-.28-1.37-.97-1.53-.11-.02-.21-.03-.32-.03h-2.07c-.94.04-1.72.75-1.86,1.68-.17.69.25,1.38.94,1.55.1.02.2.04.3.04h4.87s-.22,1.28-.22,1.28ZM60.66,34.54l-.22,1.26h-.91c-.31,0-.62-.07-.89-.21-.19.81-.65,1.53-1.31,2.03-.68.47-1.47.74-2.29.78-.52.06-1.04.04-1.55-.07l.42-1.25c.95.17,1.93.02,2.78-.44.43-.34.71-.83.77-1.37l.93-5.28h1.26l-.64,3.62c-.09.41.17.81.57.9.06.01.12.02.18.02h.91ZM64.86,34.54l-.22,1.26h-4.44l.22-1.26h4.44ZM69.06,34.54l-.22,1.26h-4.44l.22-1.26h4.44ZM82.8,30l-.53,3.02c-.32,1.57-1.67,2.72-3.27,2.78h-.77c-.8.01-1.54-.43-1.92-1.14-.59.7-1.45,1.11-2.37,1.14h-.91c-.74.02-1.44-.35-1.85-.98l-.04.09c-.42.55-1.07.88-1.76.89h-.8l.22-1.26h.8c.5-.02.93-.38,1.02-.87l.43-2.45h1.26l-.32,1.79c-.16.67.25,1.34.92,1.5.11.03.22.04.33.03h.91c.89-.02,1.64-.66,1.81-1.53l.32-1.79h1.25l-.32,1.8c-.16.67.26,1.33.92,1.49.11.02.22.04.33.03h.75c.87-.03,1.61-.66,1.79-1.52l.53-3.02h1.26ZM85.34,26.81h1.27l-1.58,8.99h-1.27l1.58-8.99ZM99.96,34.54l-.22,1.26h-1.24c-.37,0-.74-.09-1.07-.27l-.08.46c-.16.78-.83,1.36-1.63,1.38h-4.2c-1.11.03-2.04-.84-2.08-1.95,0-.17.01-.35.05-.52l.41-2.31h1.26l-.41,2.31c-.12.53.21,1.06.74,1.19.08.02.16.03.25.03h3.84c.28-.02.51-.23.57-.5l.35-1.98c0-.07.01-.15.03-.22l.18-1.04h.01l.98-5.62h1.27l-1.17,6.66c-.11.5.2.99.7,1.1.07.02.14.02.21.02h1.25ZM105.6,34.54l-.23,1.26h-1.28c-.61.02-1.19-.28-1.52-.8-.44.49-1.07.78-1.73.8h-1.34l.22-1.26h1.21c.59-.02,1.09-.45,1.2-1.03l.4-2.29h1.27l-.41,2.3c-.06.49.28.94.78,1.01.05,0,.1,0,.15,0h1.29ZM101.78,37.54c-.09.43-.46.75-.91.77-.35.01-.64-.26-.65-.6,0-.06,0-.11.02-.17.09-.43.46-.74.9-.76.35-.01.64.26.65.61,0,.05,0,.1-.01.15M103.86,37.54c-.09.44-.46.76-.91.77-.35,0-.64-.27-.65-.62,0-.05,0-.1.02-.16.09-.43.46-.74.9-.76.34-.02.64.25.65.6,0,.05,0,.11-.01.16M117.29,32.88l-.35,2c-.1.53-.56.91-1.09.93h-10.72l.22-1.26h1.29l.8-4.54h1.25l-.21,1.18,5.62-1.21c.86-.23,1.77-.02,2.45.56.64.6.93,1.49.75,2.35M116.03,32.88c.1-.49-.06-1.01-.44-1.35-.4-.34-.93-.46-1.44-.32l-5.91,1.26-.36,2.06h7.54c.18,0,.34-.14.38-.32l.24-1.34ZM126.92,35.81h-1.16c-.19.83-.67,1.55-1.36,2.04-.93.59-2.01.89-3.11.85-.6,0-1.19-.06-1.78-.2l.48-1.2c.42.1,2.62.43,3.82-.4.35-.28.6-.65.72-1.08h-3.37c-1.28,0-2.33-1.02-2.34-2.31,0-.18.02-.37.06-.55.31-1.58,1.66-2.75,3.28-2.83h4.62l-.78,4.41h1.14l-.22,1.26ZM121.38,34.56h3.39l.56-3.18h-3.39c-.9.05-1.65.7-1.82,1.58-.17.7.27,1.4.96,1.56.1.02.2.03.3.04M132.79,34.53l-.23,1.26h-1.28c-.61.02-1.19-.28-1.52-.8-.44.49-1.07.78-1.73.8h-1.34l.22-1.26h1.21c.59-.02,1.09-.45,1.2-1.03l.4-2.29h1.27l-.41,2.3c-.06.49.28.94.78,1.01.05,0,.1,0,.15,0h1.29ZM130.48,29.28c-.09.43-.46.75-.91.77-.35,0-.64-.28-.65-.63,0-.05,0-.1.01-.14.09-.43.46-.74.9-.76.34-.02.64.25.65.6,0,.05,0,.11-.01.16M132.54,29.28c-.09.43-.46.75-.91.77-.35,0-.64-.27-.65-.63,0-.05,0-.1.01-.14.09-.43.46-.74.9-.76.34-.01.64.25.65.6,0,.05,0,.11-.01.16M132.31,35.8l.22-1.26h1.16c.37-.02.67-.28.75-.64l1.24-7.06h1.26l-1.24,7.06c-.21,1.07-1.13,1.86-2.22,1.9h-1.18Z"/>
      <path id="Path_38624" class="cls-2" d="M17.33,17.45l-.43,2.45H0l.43-2.45h1.54l1.66-9.41h2.45l-.95,5.4,6.87-1.38c1.15-.3,2.37-.02,3.27.75.87.8,1.25,1.99,1.02,3.14l-.26,1.49h1.3ZM13.65,16.95l.18-.99c.09-.44-.06-.89-.4-1.19-.35-.32-.85-.43-1.3-.28l-7.44,1.47-.26,1.49h8.64c.29,0,.54-.21.59-.5M22.89,17.45l-.43,2.45h-6.08l.43-2.45h6.08ZM31.22,17.45l-.45,2.45h-2.18c-.74.01-1.46-.25-2.02-.74-.62.46-1.37.72-2.14.74h-2.3l.43-2.45h2.01c.52-.02.97-.4,1.07-.91l.51-2.92h2.47l-.52,2.94c0,.49.39.9.88.9,0,0,.02,0,.03,0h2.2ZM25.67,22.3c-.15.77-.82,1.34-1.61,1.37-.62.02-1.13-.46-1.15-1.08,0-.1,0-.2.03-.29.16-.76.82-1.32,1.6-1.35.61-.02,1.13.46,1.15,1.07,0,.09,0,.19-.03.28M29.06,22.3c-.15.77-.82,1.34-1.61,1.37-.62.02-1.13-.46-1.15-1.08,0-.1,0-.2.03-.29.16-.76.82-1.32,1.6-1.35.61-.02,1.13.46,1.15,1.07,0,.09,0,.19-.03.28M49.53,12.05l-.66,3.75c-.47,2.32-2.46,4.01-4.82,4.1h-.77c-1,0-1.96-.44-2.62-1.19-.87.74-1.97,1.17-3.12,1.19h-.9c-.94.02-1.85-.37-2.5-1.05l-.06.06c-.74.63-1.67.98-2.64.99h-.97l.43-2.45h.97c.63-.02,1.16-.47,1.28-1.08l.48-2.75h2.45l-.38,2.15c-.18.73.27,1.47,1.01,1.64.12.03.24.04.36.04h.9c.98-.02,1.81-.72,1.99-1.68l.38-2.15h2.43l-.38,2.18c-.17.72.28,1.45,1.01,1.61.12.03.23.04.35.03h.72c.95-.03,1.76-.71,1.94-1.65l.66-3.75h2.45ZM61.78,19.9h-1.49c-.3,1.17-1.01,2.2-2,2.9-1.35.87-2.94,1.31-4.55,1.24-.9,0-1.79-.09-2.66-.3l.95-2.35c.86.19,3.68.52,5.09-.47.34-.25.59-.6.74-.99h-3.9c-1.78.05-3.26-1.36-3.31-3.14,0-.28.02-.55.08-.82.44-2.22,2.36-3.84,4.62-3.92h6.38l-.95,5.4h1.44l-.43,2.46ZM54.38,17.5h3.94l.53-3.03h-3.94c-.86.04-1.58.66-1.76,1.51-.16.66.24,1.33.9,1.49.1.03.21.04.32.03M67.97,17.45l-.43,2.45h-6.08l.43-2.45h6.08ZM67.23,19.9l.43-2.45h1.73c.23-.01.43-.18.48-.41l1.59-9h2.45l-1.59,9c-.33,1.61-1.72,2.79-3.36,2.86h-1.73ZM76.57,8.04h2.45l-2.09,11.85h-2.45l2.09-11.85ZM94.98,12.02l-.77,4.35c-.11.48.19.95.67,1.06.07.02.15.02.23.02h1.18l-.43,2.45h-1.18c-.81.01-1.6-.31-2.17-.9l-.08-.08c-.8.63-1.78.97-2.79.97h-3.31c-1.77.08-3.27-1.28-3.36-3.06-.01-.29.01-.57.07-.85.46-2.24,2.39-3.88,4.67-3.97h7.27ZM90.05,17.56c.89-.06,1.62-.7,1.8-1.57l.27-1.52h-4.84c-.88.03-1.62.66-1.78,1.52-.17.68.25,1.37.92,1.53.1.02.2.04.31.04h3.32ZM90.25,9.32c-.15.77-.82,1.34-1.61,1.37-.62.02-1.13-.46-1.15-1.08,0-.1,0-.2.03-.29.16-.76.82-1.32,1.6-1.35.61-.02,1.13.46,1.15,1.07,0,.09,0,.19-.03.28M93.63,9.32c-.15.77-.82,1.34-1.61,1.37-.62.02-1.13-.46-1.16-1.07,0-.1,0-.2.03-.3.16-.76.82-1.32,1.6-1.35.61-.02,1.13.46,1.15,1.07,0,.09,0,.19-.03.28M108.82,19.9h-13.28l.43-2.45h11.96c.23-.01.43-.18.48-.41l.33-1.88c.08-.36-.15-.71-.5-.79-.06-.01-.12-.02-.17-.01h-8.56c-1.41,0-1.85-1.6-.88-2.65l3.82-4.27,1.73,1.41-2.72,3.06h7.05c1.47-.06,2.7,1.09,2.76,2.56,0,.23-.01.46-.06.69l-.57,3.22c-.18.86-.93,1.49-1.81,1.52M120.36,17.45l-.43,2.45h-1.21c-.27,0-.55-.04-.81-.11-.32.95-.92,1.78-1.72,2.39-.91.64-1.97,1.03-3.07,1.13-.92.13-1.86.08-2.77-.13l.8-2.42c.43.08,2.86.31,3.78-.49.44-.36.72-.89.78-1.46l1.19-6.77h2.46l-.82,4.65c-.07.34.14.67.48.74.05.01.1.02.15.01h1.21ZM138.66,12.05l-.66,3.75c-.47,2.32-2.46,4.01-4.82,4.1h-.77c-1,0-1.96-.44-2.62-1.19-.87.74-1.97,1.17-3.11,1.19h-.89c-.94.02-1.85-.37-2.5-1.05l-.06.06c-.74.63-1.67.98-2.64.99h-.97l.43-2.45h.97c.63-.02,1.15-.47,1.27-1.08l.48-2.75h2.45l-.38,2.15c-.18.73.27,1.47,1.01,1.64.12.03.24.04.36.04h.9c.98-.02,1.81-.72,1.99-1.68l.38-2.15h2.43l-.38,2.18c-.17.72.28,1.45,1.01,1.61.12.03.23.04.35.03h.72c.95-.03,1.76-.71,1.94-1.65l.66-3.75h2.44ZM130.81,10.49c-.15.77-.82,1.34-1.61,1.37-.62.02-1.13-.46-1.15-1.08,0-.1,0-.2.03-.29.16-.76.82-1.32,1.6-1.35.61-.02,1.13.46,1.15,1.07,0,.09,0,.19-.03.28M133.03,7.35c-.15.77-.82,1.34-1.61,1.37-.62.02-1.13-.46-1.15-1.08,0-.1,0-.2.03-.29.16-.76.82-1.32,1.6-1.35.61-.02,1.13.46,1.15,1.07,0,.09,0,.19-.03.28M134.2,10.49c-.15.77-.82,1.34-1.61,1.37-.62.02-1.13-.46-1.15-1.08,0-.1,0-.2.03-.29.16-.76.82-1.32,1.6-1.35.61-.02,1.13.46,1.15,1.07,0,.09,0,.19-.03.28"/>
      <path id="Path_38625" class="cls-2" d="M184.33,9.45c3.48,4.52,4.97,10.26,4.15,15.91-.4,2.86-1.4,5.59-2.95,8.03-1.39,2.18-3.16,4.11-5.22,5.67-1.56,1.16-3.26,2.12-5.05,2.88-1.05.46-1.13.43-1.76-.46-1.57-2.24-3.08-4.51-4.73-6.68-.54-.71-.99-1.48-1.53-2.31-1.48,2.14-2.86,4.23-4.33,6.24-.78,1.07-1.52,2.18-2.3,3.26-.16.25-.48.33-.74.18-1.42-.51-2.79-1.17-4.08-1.96-1.34-.84-2.59-1.81-3.73-2.91-1.04-.99-1.96-2.09-2.74-3.3-.7-1.09-1.32-2.24-1.85-3.43-2.86-6.64-2.13-14.29,1.95-20.27.1-.16.11-.16.61-.35-.29.73-.64,1.38-.92,2.04-1.13,2.75-1.58,5.72-1.32,8.68.21,2.46.9,4.85,2.04,7.04,1.19,2.33,2.85,4.39,4.87,6.06.86.72,1.81,1.32,2.73,1.96.24.21.6.19.81-.05.02-.02.04-.05.05-.07,1.29-1.48,2.61-2.94,3.93-4.39,1.53-1.67,3.08-3.33,4.61-5,.32-.35.56-.26.82.03,1.52,1.69,3.07,3.35,4.56,5.07,1.25,1.44,2.66,2.74,3.82,4.27.36.48.79.26,1.15.02,1.8-1.12,3.44-2.48,4.86-4.06.64-.73,1.21-1.51,1.72-2.34,1.33-2.14,2.23-4.52,2.65-7.01.38-2.39.33-4.83-.15-7.2-.39-1.94-1.05-3.81-1.97-5.56"/>
      <path id="Path_38626" class="cls-2" d="M182.35,30.01c-.42.47-.87.91-1.35,1.32.93-1.27,1.74-2.64,2.4-4.07.11-.23.12-.33-.07-.5-1.02-.94-2.11-1.79-3.2-2.65-1.37-1.07-2.86-1.93-4.32-2.86-.58-.37-.71-.24-.8.38-.43,2.6-.57,5.24-.43,7.87.02.23,0,.46,0,.71-.32-.06-.29-.31-.32-.48-.68-2.92-.83-5.94-.44-8.91.07-.4-.06-.54-.41-.75-1.75-.88-3.57-1.62-5.45-2.21-.54-.21-.9-.24-1,.57-.15,1.13-.43,2.24-.84,3.3,0-1.17-.04-2.34.02-3.5.03-.64-.07-.96-.78-1.08-1.98-.47-3.99-.82-6.02-1.05-.47-.02-.62.09-.67.55-.14,1.38-.17,2.76-.1,4.14.03.32-.02.65-.15.94-.12-.39-.22-.79-.28-1.19-.13-1.3-.28-2.6-.3-3.9-.01-.63-.25-.77-.78-.81-2.09-.16-4.19-.22-6.29-.18-.26,0-.55.13-.79-.07-.04-.15.03-.21.14-.23,2.3-.53,4.66-.71,7.01-.52.65.08.8-.16.81-.72.12-2.15.67-4.25,1.61-6.18.21-.45.1-.61-.39-.55-2.21.22-4.4.57-6.56,1.05-.9.21-1.1,1.15-1.61,1.75-.51.72-.91,1.51-1.19,2.35-.1.24-.15.54-.49.69-.14-.33.08-.59.15-.85.93-3.21,2.84-6.05,5.44-8.13,1.85-1.52,3.98-2.66,6.27-3.37,2.64-.84,5.43-1.09,8.17-.73,2.3.31,4.52,1.03,6.56,2.13,2.28,1.19,4.31,2.84,5.94,4.83,1.35,1.62,2.41,3.46,3.12,5.44.83,2.21,1.24,4.55,1.2,6.91-.03,1.35-.22,2.69-.55,4-.54,2.41-1.67,4.66-3.29,6.53M163.64,7.35c-.33.02-.67.02-1,0-.52-.11-1.04.17-1.21.67-.57.99-1.07,2.03-1.5,3.09-.44,1.09-.76,2.22-.95,3.38-.03.33-.05.54.37.57,2.14.2,4.25.58,6.32,1.14.52.13.67.04.77-.52.21-1.39.54-2.76.98-4.09.38-1.02.84-2.02,1.36-2.98.17-.31.2-.49-.23-.57-1.61-.4-3.26-.63-4.91-.68M177.2,12.12c-.07-.25-.26-.35-.42-.46-1.6-1.15-3.36-2.07-5.21-2.75-.41-.21-.9-.04-1.11.37,0,.01-.01.03-.02.04-1.16,1.88-2.05,3.92-2.64,6.05-.37,1.31-.32,1.32,1.03,1.66.15.04.29.09.43.15,1.4.45,2.77.99,4.1,1.61.45.24.75.23.94-.45.54-2.04,1.42-3.98,2.6-5.73.11-.17.21-.34.31-.5M184.79,21.97c-.04-.13-.06-.26-.11-.37-.58-1.36-1.29-2.65-2.12-3.86-.87-1.28-1.83-2.49-2.89-3.62-.58-.66-.93-.67-1.48.03-.56.77-1.03,1.6-1.42,2.47-.46.82-.82,1.69-1.08,2.6-.09.36-.03.61.31.75.57.23,1.07.58,1.61.86,2.24,1.12,4.26,2.64,5.94,4.5.3.33.4.49.6-.06.27-1.09.49-2.19.64-3.3M163.09,5.85c.12.18.26.11.38.11,1.7.01,3.39.2,5.04.58.56.14,1.41.45,2-.38.67-.93,1.48-1.75,2.39-2.44.38-.29.46-.46-.07-.71-.98-.36-1.99-.65-3.01-.85-1.06-.46-2.3-.31-3.21.41-1.27.98-2.45,2.08-3.51,3.29M172.14,7.24c1.02.6,2.15.85,3.1,1.5.89.51,1.75,1.07,2.58,1.67.21.22.56.23.78.02.05-.05.09-.11.12-.17.42-.57.91-1.1,1.45-1.56.25-.23.3-.37.02-.67-.96-1.01-2-1.94-3.11-2.77-.67-.51-1.32-.92-2.22-.25-1.01.61-1.93,1.36-2.72,2.23M153.55,7.21c.61-.15,1.2-.34,1.82-.44,1.26-.25,2.54-.41,3.83-.49.92-.02,1.74-.61,2.05-1.49.14-.27.31-.53.5-.76.52-.62,1.01-1.27,1.57-1.99-3.74.58-7.18,2.4-9.76,5.17M184.81,19.52c0-.88-.1-1.76-.29-2.63-.33-2.11-1.09-4.13-2.23-5.94-.14-.22-.25-.52-.55-.22-.54.42-1.06.86-1.54,1.34-.27.34-.15.53.11.74,1.03.9,1.89,1.97,2.56,3.16.74,1.13,1.38,2.32,1.93,3.55"/>
      <path id="Path_38627" class="cls-2" d="M167.24,33.74l9.43,13.55c-.94-.61-1.82-1.31-2.64-2.08-2.1-1.72-4.17-3.47-6.23-5.24-.3-.31-.8-.32-1.11-.02-.02.02-.05.05-.07.07-1.71,1.42-3.41,2.85-5.11,4.29-1.23,1.03-2.45,2.06-3.76,3.01l9.48-13.58"/>
    </g>
  </g>
</svg>